<!-- Generated by GitHub Copilot -->
<svg xmlns="http://www.w3.org/2000/svg" width="600" height="400" viewBox="0 0 600 400">
    <style>
        .cls-1 { fill: #F5F7FF; }
        .cls-2 { fill: #E8ECFF; }
        .cls-3 { fill: #4361EE; }
        .cls-4 { fill: #3A56D4; }
        .cls-5 { fill: #637BFF; }
        .cls-6 { fill: #FF7B00; }
        .cls-7 { fill: #FFB052; }
        .cls-8 { fill: #2B3044; }
        .cls-9 { fill: #FFFFFF; }
        .cls-10 { fill: #10B981; }
        .st0 { font: bold 20px sans-serif; }
        .st1 { font: 16px sans-serif; }
    </style>

    <!-- Background -->
    <rect class="cls-1" width="600" height="400" />

    <!-- House shape -->
    <g transform="translate(350, 100)">
        <path class="cls-2" d="M120,180 H20 V90 H120 V180 Z" />
        <path class="cls-9" d="M110,180 H30 V100 H110 V180 Z" />
        <path class="cls-3" d="M70,20 L10,70 V90 H130 V70 L70,20 Z" />
        <path class="cls-4" d="M70,10 L0,65 L10,75 L70,25 L130,75 L140,65 L70,10 Z" />
        <rect class="cls-8" x="55" y="140" width="30" height="40" />
        <circle class="cls-6" cx="80" r="5" cy="160" />
    </g>

    <!-- Checklist -->
    <g transform="translate(70, 80)">
        <rect class="cls-9" x="0" y="0" width="200" height="240" rx="10" ry="10" />
        <rect class="cls-5" x="0" y="0" width="200" height="40" rx="10" ry="10" />
        <text x="20" y="25" fill="white" class="st0">House Chores</text>

        <!-- Chore items -->
        <g transform="translate(20, 60)">
            <circle class="cls-10" cx="10" cy="10" r="10" />
            <text x="30" y="15" class="st1">Clean kitchen</text>
            <polyline points="5,10 8,15 15,5" stroke="white" stroke-width="2" fill="none" />
        </g>

        <g transform="translate(20, 100)">
            <circle class="cls-10" cx="10" cy="10" r="10" />
            <text x="30" y="15" class="st1">Take out trash</text>
            <polyline points="5,10 8,15 15,5" stroke="white" stroke-width="2" fill="none" />
        </g>

        <g transform="translate(20, 140)">
            <circle class="cls-2" cx="10" cy="10" r="10" stroke="#D1D5DB" stroke-width="2" />
            <text x="30" y="15" class="st1">Vacuum living room</text>
        </g>

        <g transform="translate(20, 180)">
            <circle class="cls-2" cx="10" cy="10" r="10" stroke="#D1D5DB" stroke-width="2" />
            <text x="30" y="15" class="st1">Water plants</text>
        </g>
    </g>

    <!-- Decorative elements -->
    <circle class="cls-5" cx="500" cy="50" r="30" opacity="0.2" />
    <circle class="cls-6" cx="100" cy="350" r="20" opacity="0.2" />
    <circle class="cls-3" cx="530" cy="330" r="40" opacity="0.2" />

    <!-- Points badge -->
    <g transform="translate(450, 250)">
        <circle class="cls-7" cx="25" cy="25" r="40" />
        <circle class="cls-6" cx="25" cy="25" r="35" />
        <text x="25" y="20" text-anchor="middle" fill="white" class="st0">50</text>
        <text x="25" y="40" text-anchor="middle" fill="white" class="st1">POINTS</text>
    </g>
</svg>